<svg xmlns="http://www.w3.org/2000/svg" viewBox="0 0 64 64">
  <rect width="64" height="64" rx="10" fill="#ffffff" />
  <rect x="12" y="4" width="40" height="56" rx="3" fill="#000000" />

  <rect x="19" y="9" width="26" height="12" fill="#ffffff" />
  <rect x="19" y="26" width="26" height="12" fill="#ffffff" />
  <rect x="19" y="43" width="26" height="12" fill="#ffffff" />

  <rect x="13" y="6" width="4" height="3" rx="1" fill="#ffffff" />
  <rect x="13" y="11" width="4" height="3" rx="1" fill="#ffffff" />
  <rect x="13" y="16" width="4" height="3" rx="1" fill="#ffffff" />
  <rect x="13" y="21" width="4" height="3" rx="1" fill="#ffffff" />
  <rect x="13" y="26" width="4" height="3" rx="1" fill="#ffffff" />
  <rect x="13" y="31" width="4" height="3" rx="1" fill="#ffffff" />
  <rect x="13" y="36" width="4" height="3" rx="1" fill="#ffffff" />
  <rect x="13" y="41" width="4" height="3" rx="1" fill="#ffffff" />
  <rect x="13" y="46" width="4" height="3" rx="1" fill="#ffffff" />
  <rect x="13" y="51" width="4" height="3" rx="1" fill="#ffffff" />

  <rect x="47" y="6" width="4" height="3" rx="1" fill="#ffffff" />
  <rect x="47" y="11" width="4" height="3" rx="1" fill="#ffffff" />
  <rect x="47" y="16" width="4" height="3" rx="1" fill="#ffffff" />
  <rect x="47" y="21" width="4" height="3" rx="1" fill="#ffffff" />
  <rect x="47" y="26" width="4" height="3" rx="1" fill="#ffffff" />
  <rect x="47" y="31" width="4" height="3" rx="1" fill="#ffffff" />
  <rect x="47" y="36" width="4" height="3" rx="1" fill="#ffffff" />
  <rect x="47" y="41" width="4" height="3" rx="1" fill="#ffffff" />
  <rect x="47" y="46" width="4" height="3" rx="1" fill="#ffffff" />
  <rect x="47" y="51" width="4" height="3" rx="1" fill="#ffffff" />
</svg>
